<svg width="134" height="62" viewBox="0 0 134 62" fill="none" xmlns="http://www.w3.org/2000/svg">
<path d="M18.6875 22.2812C16.9688 23.8542 14.7708 24.6406 12.0938 24.6406C8.78125 24.6406 6.17708 23.5781 4.28125 21.4531C2.38542 19.3177 1.4375 16.3906 1.4375 12.6719C1.4375 8.65104 2.51562 5.55208 4.67188 3.375C6.54688 1.47917 8.93229 0.53125 11.8281 0.53125C15.7031 0.53125 18.5365 1.80208 20.3281 4.34375C21.3177 5.77083 21.849 7.20312 21.9219 8.64062H17.1094C16.7969 7.53646 16.3958 6.70312 15.9062 6.14062C15.0312 5.14062 13.7344 4.64062 12.0156 4.64062C10.2656 4.64062 8.88542 5.34896 7.875 6.76562C6.86458 8.17188 6.35938 10.1667 6.35938 12.75C6.35938 15.3333 6.89062 17.2708 7.95312 18.5625C9.02604 19.8438 10.3854 20.4844 12.0312 20.4844C13.7188 20.4844 15.0052 19.9323 15.8906 18.8281C16.3802 18.2344 16.7865 17.3438 17.1094 16.1562H21.875C21.4583 18.6667 20.3958 20.7083 18.6875 22.2812ZM25.5625 0.96875H30.375V19.8594H41.7812V24H25.5625V0.96875ZM58.6094 19.2656H50.125L48.5312 24H43.5L51.7188 0.96875H57.1562L65.3125 24H60.0938L58.6094 19.2656ZM57.2656 15.2969L54.3906 6.23438L51.4219 15.2969H57.2656ZM78.0312 14.9688H73.0625V24H68.3594V0.96875H79.6562C81.2708 1 82.5104 1.19792 83.375 1.5625C84.25 1.92708 84.9896 2.46354 85.5938 3.17188C86.0938 3.75521 86.4896 4.40104 86.7812 5.10938C87.0729 5.81771 87.2188 6.625 87.2188 7.53125C87.2188 8.625 86.9427 9.70312 86.3906 10.7656C85.8385 11.8177 84.9271 12.5625 83.6562 13C84.7188 13.4271 85.4688 14.0365 85.9062 14.8281C86.3542 15.6094 86.5781 16.8073 86.5781 18.4219V19.9688C86.5781 21.0208 86.6198 21.7344 86.7031 22.1094C86.8281 22.7031 87.1198 23.1406 87.5781 23.4219V24H82.2812C82.1354 23.4896 82.0312 23.0781 81.9688 22.7656C81.8438 22.1198 81.776 21.4583 81.7656 20.7812L81.7344 18.6406C81.7135 17.1719 81.4427 16.1927 80.9219 15.7031C80.4115 15.2135 79.4479 14.9688 78.0312 14.9688ZM80.9531 10.7812C81.9115 10.3438 82.3906 9.47917 82.3906 8.1875C82.3906 6.79167 81.9271 5.85417 81 5.375C80.4792 5.10417 79.6979 4.96875 78.6562 4.96875H73.0625V11.1562H78.5156C79.599 11.1562 80.4115 11.0312 80.9531 10.7812ZM107.406 13.9375H96.2188V19.8594H108.969V24H91.5156V0.96875H108.406V5.04688H96.2188V9.9375H107.406V13.9375ZM10.6562 54.0781V37.9688H15.4688V54C15.4688 55.9583 15.1302 57.5104 14.4531 58.6562C13.3073 60.5938 11.2396 61.5625 8.25 61.5625C5.26042 61.5625 3.25521 60.7812 2.23438 59.2188C1.21354 57.6458 0.703125 55.5052 0.703125 52.7969V52.2656H5.25V52.7969C5.29167 54.5781 5.48438 55.8333 5.82812 56.5625C6.18229 57.2812 6.93229 57.6406 8.07812 57.6406C9.21354 57.6406 9.96354 57.2448 10.3281 56.4531C10.5469 55.9844 10.6562 55.1927 10.6562 54.0781ZM30.4375 61.6406C27.1458 61.6406 24.6302 60.7448 22.8906 58.9531C20.5573 56.7552 19.3906 53.5885 19.3906 49.4531C19.3906 45.2344 20.5573 42.0677 22.8906 39.9531C24.6302 38.1615 27.1458 37.2656 30.4375 37.2656C33.7292 37.2656 36.2448 38.1615 37.9844 39.9531C40.3073 42.0677 41.4688 45.2344 41.4688 49.4531C41.4688 53.5885 40.3073 56.7552 37.9844 58.9531C36.2448 60.7448 33.7292 61.6406 30.4375 61.6406ZM34.9844 55.4531C36.099 54.0469 36.6562 52.0469 36.6562 49.4531C36.6562 46.8698 36.0938 44.875 34.9688 43.4688C33.8542 42.0521 32.3438 41.3438 30.4375 41.3438C28.5312 41.3438 27.0104 42.0469 25.875 43.4531C24.7396 44.8594 24.1719 46.8594 24.1719 49.4531C24.1719 52.0469 24.7396 54.0469 25.875 55.4531C27.0104 56.8594 28.5312 57.5625 30.4375 57.5625C32.3438 57.5625 33.8594 56.8594 34.9844 55.4531ZM54.9375 51.9688H49.9688V61H45.2656V37.9688H56.5625C58.1771 38 59.4167 38.1979 60.2812 38.5625C61.1562 38.9271 61.8958 39.4635 62.5 40.1719C63 40.7552 63.3958 41.401 63.6875 42.1094C63.9792 42.8177 64.125 43.625 64.125 44.5312C64.125 45.625 63.849 46.7031 63.2969 47.7656C62.7448 48.8177 61.8333 49.5625 60.5625 50C61.625 50.4271 62.375 51.0365 62.8125 51.8281C63.2604 52.6094 63.4844 53.8073 63.4844 55.4219V56.9688C63.4844 58.0208 63.526 58.7344 63.6094 59.1094C63.7344 59.7031 64.026 60.1406 64.4844 60.4219V61H59.1875C59.0417 60.4896 58.9375 60.0781 58.875 59.7656C58.75 59.1198 58.6823 58.4583 58.6719 57.7812L58.6406 55.6406C58.6198 54.1719 58.349 53.1927 57.8281 52.7031C57.3177 52.2135 56.3542 51.9688 54.9375 51.9688ZM57.8594 47.7812C58.8177 47.3438 59.2969 46.4792 59.2969 45.1875C59.2969 43.7917 58.8333 42.8542 57.9062 42.375C57.3854 42.1042 56.6042 41.9688 55.5625 41.9688H49.9688V48.1562H55.4219C56.5052 48.1562 57.3177 48.0312 57.8594 47.7812ZM78.2031 61H68.2812V37.9688H78.2031C79.6302 37.9896 80.8177 38.1562 81.7656 38.4688C83.3802 39 84.6875 39.974 85.6875 41.3906C86.4896 42.5365 87.0365 43.776 87.3281 45.1094C87.6198 46.4427 87.7656 47.7135 87.7656 48.9219C87.7656 51.9844 87.151 54.5781 85.9219 56.7031C84.2552 59.5677 81.6823 61 78.2031 61ZM81.7812 43.8438C81.0417 42.5938 79.5781 41.9688 77.3906 41.9688H72.9531V57H77.3906C79.6615 57 81.2448 55.8802 82.1406 53.6406C82.6302 52.4115 82.875 50.9479 82.875 49.25C82.875 46.9062 82.5104 45.1042 81.7812 43.8438ZM104.891 56.2656H96.4062L94.8125 61H89.7812L98 37.9688H103.438L111.594 61H106.375L104.891 56.2656ZM103.547 52.2969L100.672 43.2344L97.7031 52.2969H103.547ZM133.156 61H128.344L118.938 44.6406V61H114.453V37.9688H119.5L128.672 54.0469V37.9688H133.156V61Z" fill="#1E1E1E"/>
</svg>
